<svg xmlns="http://www.w3.org/2000/svg" width="27" height="34" viewBox="0 0 156 197.7">
<path fill="" d="M79.5,2l-0.8-0.1L2,9.9v140.6l76.7,45.6l76.7-45.6V9.9L79.5,2z M145.3,144.8l-66.7,39.7L12,144.8V87.2
	l66.4,39.5l0.1,7.2L33,106.7l-0.1,7l45.7,27.5l0.1,7.3L33,121.3l-0.1,7l45.7,27.5l46.2-27.6v-7l-0.1,0v-2.4v-2.9V98.5l20.6-12.3
	V144.8z M145.3,78.7L127,89.5l-8.4,5L78.5,70.5l-0.1,7l34.3,20.4l-0.3,0.2l-0.7,0.4l-4.9,2.9L78.5,84.5l-0.1,7l22.4,13.3l-5.3,3.5
	l-0.1,0.1l-16.9-10l-0.1,7l11.1,6.5l-11.3,6.8l-66-39.3l66.1-39.8v0L145.3,78.7z M145.3,71.7l-67-39.5v0l0,0l0,0v0L12,71.7V19
	l66.7-7l66.7,7V71.7z"/>
</svg>
