<svg xmlns="http://www.w3.org/2000/svg" width="27" height="34" viewBox="0 0 156 197.7"><path d="M79.5 2l-.8-.1L2 9.9v140.6l76.7 45.6 76.7-45.6V9.9L79.5 2zm65.8 142.8l-66.7 39.7L12 144.8V87.2l66.4 39.5.1 7.2L33 106.7l-.1 7 45.7 27.5.1 7.3L33 121.3l-.1 7 45.7 27.5 46.2-27.6v-7h-.1V98.5l20.6-12.3v58.6zm0-66.1L127 89.5l-8.4 5-40.1-24-.1 7 34.3 20.4-.3.2-.7.4-4.9 2.9-28.3-16.9-.1 7 22.4 13.3-5.3 3.5-.1.1-16.9-10-.1 7 11.1 6.5-11.3 6.8-66-39.3 66.1-39.8 67 39.1zm0-7l-67-39.5L12 71.7V19l66.7-7 66.7 7v52.7z"/></svg>